<svg width="174" height="34" viewBox="0 0 174 34" fill="none" xmlns="http://www.w3.org/2000/svg">
<path d="M17.1774 11.2907C17.1774 13.815 15.8072 15.3296 12.8841 15.3296H8.04266V7.34354H12.8841C15.8072 7.34354 17.1774 8.90404 17.1774 11.2907ZM0.232422 0.826157V33.0459H8.04266V20.8832H9.91528L16.5837 33.0459H25.3987L17.9996 20.2865C22.9323 18.8178 25.1247 15.0084 25.1247 10.9694C25.1247 5.36997 21.1967 0.826157 13.3408 0.826157H0.232422Z" fill="black"/>
<path d="M49.5759 0.826157H29.9361V33.0459H49.5759V26.758H37.7464V19.6899H48.2057V13.6314H37.7464V7.11406H49.5759V0.826157Z" fill="black"/>
<path d="M66.5673 0.826157H54.5551V33.0459H66.5673C76.7983 33.0459 83.3753 26.4826 83.3753 16.936C83.3753 7.34354 76.7983 0.826157 66.5673 0.826157ZM62.3653 26.2531V7.52713H66.0649C71.9568 7.52713 75.428 11.0153 75.428 16.936C75.428 22.8568 71.9568 26.2531 66.0649 26.2531H62.3653Z" fill="black"/>
<path d="M87.6487 0.826157V33.0459H105.69V26.9875H95.4589V0.826157H87.6487Z" fill="#FF0000"/>
<path d="M109.324 33.0459H117.134V0.826157H109.324V33.0459Z" fill="#FF0000"/>
<path d="M145.996 23.4534C145.996 12.6676 130.147 15.1919 130.147 9.5925C130.147 7.57303 131.563 6.60919 133.436 6.65509C135.537 6.70099 136.999 7.9402 137.136 10.0056H145.585C145.266 3.85536 140.561 0.367188 133.573 0.367188C126.859 0.367188 121.881 3.76357 121.881 9.86788C121.789 21.2963 137.821 18.0835 137.821 24.0501C137.821 25.9319 136.359 27.0793 134.075 27.0793C131.883 27.0793 130.33 25.886 130.102 23.4075H121.789C122.018 29.9249 127.407 33.3672 134.304 33.3672C141.794 33.3672 145.996 28.8693 145.996 23.4534Z" fill="#FF0000"/>
<path d="M148.976 7.11406H157.471V33.0459H165.281V7.11406H173.777V0.826157H148.976V7.11406Z" fill="#FF0000"/>
</svg>
